HIERARCHY
ROOT Hips
{
	OFFSET 0.000000 0.000000 0.000000
	CHANNELS 6 Xposition Yposition Zposition Xrotation Yrotation Zrotation
	JOINT LeftUpLeg_virtual
	{
		OFFSET 0.000000 0.000000 0.000000
		CHANNELS 3 Xrotation Yrotation Zrotation
		JOINT LeftUpLeg
		{
			OFFSET 10.205400 -3.823500 0.155100
			CHANNELS 3 Xrotation Yrotation Zrotation
			JOINT LeftLeg
			{
				OFFSET 0.708757 -12.982077 0.567790
				CHANNELS 3 Xrotation Yrotation Zrotation
				JOINT LeftFoot
				{
					OFFSET -0.708756 -10.717838 -2.184338
					CHANNELS 3 Xrotation Yrotation Zrotation
					JOINT LeftToeBase
					{
						OFFSET 0.108149 -7.191104 7.560241
						CHANNELS 3 Xrotation Yrotation Zrotation
						JOINT LeftToe_End
						{
							OFFSET 0.070230 0.081724 4.490308
							CHANNELS 3 Xrotation Yrotation Zrotation
							End Site
							{
								OFFSET 0 0 0
							}
						}
					}
				}
			}
		}
	}
	JOINT RightUpLeg_virtual
	{
		OFFSET 0.000000 0.000000 0.000000
		CHANNELS 3 Xrotation Yrotation Zrotation
		JOINT RightUpLeg
		{
			OFFSET -10.205400 -3.823500 0.005500
			CHANNELS 3 Xrotation Yrotation Zrotation
			JOINT RightLeg
			{
				OFFSET -0.708756 -12.982134 0.610632
				CHANNELS 3 Xrotation Yrotation Zrotation
				JOINT RightFoot
				{
					OFFSET 0.708754 -10.717769 -1.945823
					CHANNELS 3 Xrotation Yrotation Zrotation
					JOINT RightToeBase
					{
						OFFSET -0.108140 -7.191069 7.372968
						CHANNELS 3 Xrotation Yrotation Zrotation
						JOINT RightToe_End
						{
							OFFSET -0.070227 0.081735 4.479403
							CHANNELS 3 Xrotation Yrotation Zrotation
							End Site
							{
								OFFSET 0 0 0
							}
						}
					}
				}
			}
		}
	}
	JOINT Spine_virtual
	{
		OFFSET 0.000000 0.000000 0.000000
		CHANNELS 3 Xrotation Yrotation Zrotation
		JOINT Spine
		{
			OFFSET 0.000000 6.876099 0.125700
			CHANNELS 3 Xrotation Yrotation Zrotation
			JOINT Spine1
			{
				OFFSET 0.000000 5.730043 0.104720
				CHANNELS 3 Xrotation Yrotation Zrotation
				JOINT Spine1_split
				{
					OFFSET 0.000000 5.730043 0.104720
					CHANNELS 3 Xrotation Yrotation Zrotation
					JOINT Spine2
					{
						OFFSET 0.000000 5.730043 0.104720
						CHANNELS 3 Xrotation Yrotation Zrotation
						JOINT Neck_virtual
						{
							OFFSET 0.000000 0.000000 0.000000
							CHANNELS 3 Xrotation Yrotation Zrotation
							JOINT Neck
							{
								OFFSET 0.000000 10.314075 0.188496
								CHANNELS 3 Xrotation Yrotation Zrotation
								JOINT Head
								{
									OFFSET 0.000000 7.643700 -2.377400
									CHANNELS 3 Xrotation Yrotation Zrotation
									JOINT HeadTop_End
									{
										OFFSET 0.000000 43.788605 -13.619600
										CHANNELS 3 Xrotation Yrotation Zrotation
										End Site
										{
											OFFSET 0 0 0
										}
									}
								}
							}
						}
						JOINT LeftShoulder_virtual
						{
							OFFSET 0.000000 0.000000 0.000000
							CHANNELS 3 Xrotation Yrotation Zrotation
							JOINT LeftShoulder
							{
								OFFSET 2.196100 4.412489 0.087492
								CHANNELS 3 Xrotation Yrotation Zrotation
								JOINT LeftShoulder_split
								{
									OFFSET 2.196100 4.412489 0.087492
									CHANNELS 3 Xrotation Yrotation Zrotation
									JOINT LeftArm
									{
										OFFSET 8.771219 -2.981674 -0.026999
										CHANNELS 3 Xrotation Yrotation Zrotation
										JOINT LeftForeArm
										{
											OFFSET 8.512804 0.000000 -0.000000
											CHANNELS 3 Xrotation Yrotation Zrotation
											JOINT LeftHand
											{
												OFFSET 18.484802 0.000000 -0.000000
												CHANNELS 3 Xrotation Yrotation Zrotation
												End Site
												{
													OFFSET 0 0 0
												}
											}
										}
									}
								}
							}
						}
						JOINT RightShoulder_virtual
						{
							OFFSET 0.000000 0.000000 0.000000
							CHANNELS 3 Xrotation Yrotation Zrotation
							JOINT RightShoulder
							{
								OFFSET -2.196100 4.412496 0.070690
								CHANNELS 3 Xrotation Yrotation Zrotation
								JOINT RightShoulder_split
								{
									OFFSET -2.196100 4.412496 0.070690
									CHANNELS 3 Xrotation Yrotation Zrotation
									JOINT RightArm
									{
										OFFSET -8.771282 -2.981682 -0.094208
										CHANNELS 3 Xrotation Yrotation Zrotation
										JOINT RightForeArm
										{
											OFFSET -8.494598 0.000000 0.000000
											CHANNELS 3 Xrotation Yrotation Zrotation
											JOINT RightHand
											{
												OFFSET -18.483803 0.000000 0.000001
												CHANNELS 3 Xrotation Yrotation Zrotation
												End Site
												{
													OFFSET 0 0 0
												}
											}
										}
									}
								}
							}
						}
					}
				}
			}
		}
	}
}
MOTION
Frames: 5
Frame Time: 0.03333333
-0.750015 28.912033 0.233009 0.000000 0.000000 0.000000 3.426537 58.085349 -9.269697 -4.603607 13.664102 20.113321 52.207657 -8.683982 17.702443 -29.757519 4.080807 -19.264038 -12.125054 -1.499980 -0.269367 0.000000 0.000000 0.000000 4.653019 59.878390 -10.040274 -17.168889 2.096320 -29.196542 25.618786 13.940642 0.449526 -16.482150 7.770698 14.672430 -6.684057 -2.032274 -0.450815 0.000000 0.000000 0.000000 5.756304 60.849909 -8.835956 1.888100 -4.165083 -0.934626 2.742381 -0.762572 -0.373151 1.020834 -0.690627 0.267655 0.000000 0.000000 0.000000 1.478708 -1.235857 -0.041281 -6.070183 -10.723131 -1.618038 -2.634400 -40.976969 5.631251 0.000000 0.000000 0.000000 1.320531 -1.064442 -0.388809 0.480963 -8.489573 -9.110178 -3.180986 -0.023095 -1.945399 3.231286 -46.111823 -46.533252 174.583665 -73.181707 173.483458 0.000000 0.000000 0.000000 2.309406 -0.887954 -0.428887 -0.066584 -2.045964 8.605759 -2.940834 6.871826 -0.371154 -22.369742 -6.992714 46.811135 -178.535913 65.378584 178.243130 0.000000 0.000000 0.000000 
-0.766519 30.122620 0.181419 0.000000 0.000000 0.000000 4.906957 56.817246 -10.432655 -5.195975 11.299904 21.289643 47.114519 -5.963862 14.966164 -22.959374 4.322881 -16.093927 -8.751816 -0.916500 -2.974560 0.000000 0.000000 0.000000 6.127328 56.984111 -10.867324 -16.249406 0.958324 -28.125768 20.701501 15.389070 0.842711 -13.128688 9.559610 19.955666 -9.361230 -0.879688 -1.424975 0.000000 0.000000 0.000000 7.545349 57.759249 -10.162965 0.967257 -4.180846 -0.185518 2.480832 -0.794055 -0.294802 1.416826 -0.605739 0.167900 0.000000 0.000000 0.000000 1.755651 -1.161015 -0.055710 -5.906560 -10.606002 -1.300752 -2.266645 -40.903267 5.626654 0.000000 0.000000 0.000000 1.334497 -1.059526 -0.289802 0.481718 -8.787569 -8.307618 -3.852752 -0.814801 -0.740877 -0.138782 -46.469455 -46.800682 176.075419 -71.850435 175.227752 0.000000 0.000000 0.000000 2.385520 -0.830361 -0.316550 0.035327 -1.843423 8.414772 -3.428926 5.727981 -1.335258 -23.777272 -7.613568 45.928914 -179.142352 64.175610 178.586347 0.000000 0.000000 0.000000 
-0.553850 32.081673 -0.218904 0.000000 0.000000 0.000000 6.323612 53.783806 -11.495546 -6.737557 8.270412 23.056413 40.207275 -3.306279 11.309819 -9.329973 2.962149 -14.936867 -2.213555 -0.628655 -7.410833 0.000000 0.000000 0.000000 7.946220 51.667389 -11.813870 -14.284516 0.473579 -25.446111 11.672528 16.575144 2.022649 -9.129846 11.874846 23.535406 -9.573369 0.089291 -1.720034 0.000000 0.000000 0.000000 9.082942 52.467461 -11.127571 0.158788 -3.901648 0.965355 2.265994 -0.702300 -0.288536 1.557896 -0.321892 0.130316 0.000000 0.000000 0.000000 2.153180 -0.969639 -0.115149 -5.557933 -10.003392 -0.797577 -1.606459 -39.509407 5.684525 0.000000 0.000000 0.000000 1.557984 -0.929336 -0.222573 0.512401 -8.548042 -6.975440 -3.534860 -1.234684 -0.587977 -4.859161 -46.161581 -46.786615 177.690937 -69.841744 176.920355 0.000000 0.000000 0.000000 2.447749 -0.738631 -0.314630 0.188478 -1.266285 8.085104 -3.334857 4.463486 -1.384960 -26.029952 -6.695296 43.511952 -179.048423 62.892867 178.272814 0.000000 0.000000 0.000000 
-0.138638 34.138657 -0.935020 0.000000 0.000000 0.000000 6.662806 48.533965 -11.805115 -8.174854 5.694627 24.491214 35.396250 -0.949664 7.989926 6.853268 0.212404 -14.577642 -0.118667 -0.617546 -10.101979 0.000000 0.000000 0.000000 8.695341 45.045159 -12.036812 -12.208261 0.081975 -21.617339 3.623494 16.191903 3.226098 -6.248252 12.562396 23.265923 -7.240569 0.577257 -1.396531 0.000000 0.000000 0.000000 9.502835 45.836409 -11.055646 -0.251647 -3.370694 2.078253 2.101932 -0.488546 -0.329637 1.334725 -0.212103 0.046771 0.000000 0.000000 0.000000 2.568887 -0.670850 -0.197443 -5.081037 -9.048240 -0.247150 -0.795589 -36.880187 5.699582 0.000000 0.000000 0.000000 1.904802 -0.692419 -0.193125 0.521862 -7.833318 -5.476548 -2.781886 -1.148110 -1.126160 -9.909676 -44.865371 -46.767760 179.018384 -68.039612 178.211301 0.000000 0.000000 0.000000 2.505788 -0.577304 -0.417332 0.333799 -0.333925 7.773613 -2.827676 3.824399 -0.925750 -28.249510 -4.270871 40.472071 -178.601210 62.088824 177.749198 0.000000 0.000000 0.000000 
0.358223 35.795662 -1.456467 0.000000 0.000000 0.000000 5.874384 42.019382 -11.050204 -8.541714 4.522236 24.288310 33.534351 1.118327 5.626353 17.407593 -2.293556 -12.401394 -4.601556 -0.222134 -9.901373 0.000000 0.000000 0.000000 7.734601 37.685333 -11.213370 -11.260865 -0.764174 -17.429050 0.474249 14.014072 3.657673 -5.083185 10.228217 19.448293 -4.888794 0.588822 -0.900335 0.000000 0.000000 0.000000 8.707458 39.175175 -9.977763 -0.149705 -2.637580 2.791211 2.046977 -0.152695 -0.384627 0.966402 -0.132665 -0.035932 0.000000 0.000000 0.000000 2.903621 -0.295200 -0.278372 -4.517407 -7.771420 0.191945 0.025999 -33.321925 5.589905 0.000000 0.000000 0.000000 2.297718 -0.355547 -0.214375 0.469108 -6.770312 -4.196445 -2.178226 -0.523578 -1.677392 -14.309899 -42.793160 -46.815909 179.854577 -66.989689 178.975859 0.000000 0.000000 0.000000 2.551354 -0.312981 -0.579243 0.484217 0.829881 7.718782 -2.125406 3.870703 -0.680405 -29.780096 -0.878293 37.716311 -178.103972 62.127339 177.351408 0.000000 0.000000 0.000000 
